<svg width="14" height="14" viewBox="0 0 14 14" fill="none" xmlns="http://www.w3.org/2000/svg">
<g clip-path="url(#clip0_103_10)">
<path fill-rule="evenodd" clip-rule="evenodd" d="M12.4015 8.97632H7.25885C8.42637 8.87838 9.34339 7.89974 9.34339 6.70691C9.34339 5.4491 8.32373 4.42944 7.06592 4.42944H5.38562C5.76893 3.91386 5.99573 3.27501 5.99573 2.58319C5.99573 1.50454 5.44439 0.554665 4.60815 0H12.4015C13.1465 0 13.7503 0.603888 13.7503 1.34882V7.6275C13.7503 8.37243 13.1465 8.97632 12.4015 8.97632ZM2.89819 4.43073C3.91856 4.43073 4.74573 3.60356 4.74573 2.58319C4.74573 1.56283 3.91856 0.735657 2.89819 0.735657C1.87783 0.735657 1.05066 1.56283 1.05066 2.58319C1.05066 3.60356 1.87783 4.43073 2.89819 4.43073ZM8.09339 6.70691C8.09339 6.13946 7.63337 5.67944 7.06592 5.67944H2.89856C1.4356 5.67944 0.249634 6.86541 0.249634 8.32837V9.53391C0.249634 10.0661 0.68106 10.4975 1.21325 10.4975H1.38489L1.66687 13.1074C1.72173 13.6152 2.15038 14 2.66108 14H3.16336C3.66238 14 4.08502 13.6321 4.15381 13.1379L4.90589 7.73438H7.06592C7.63337 7.73438 8.09339 7.27436 8.09339 6.70691Z" fill="black"/>
</g>
<defs>
<clipPath id="clip0_103_10">
<rect width="14" height="14" fill="white"/>
</clipPath>
</defs>
</svg>
